<?xml version="1.0" encoding="utf-8"?>
<!-- Generator: Adobe Illustrator 19.2.0, SVG Export Plug-In . SVG Version: 6.00 Build 0)  -->
<svg version="1.1" id="Layer_1" xmlns="http://www.w3.org/2000/svg" xmlns:xlink="http://www.w3.org/1999/xlink" x="0px" y="0px"
	 viewBox="0 0 14 14" style="enable-background:new 0 0 14 14;" xml:space="preserve">
<g id="outline">
</g>
<g id="iconBg">
	<path d="M13,1v0.3c-0.1,0-0.2,0-0.3,0c-0.8,0-1.5,0.3-2,0.9L10,3H0V1H13z M0,8h5.9l1.7-2H0V8z"/>
</g>
<g id="colorAction">
	<rect x="6.5" y="6.3" transform="matrix(0.6377 -0.7703 0.7703 0.6377 -2.4355 10.1127)" width="6" height="2.7"/>
	<path d="M10.4,4.5l2.1,1.7l-3.8,4.6L6.6,9.1L10.4,4.5z M5.2,12.8l2.5-1.2l-1.8-1.5L5.2,12.8z M13.5,2.8C13,2.4,12.1,2.4,11.6,3
		l-0.4,0.5l2.1,1.7l0.4-0.5C14.2,4.1,14.1,3.3,13.5,2.8z M0,13h3.9l0.5-2H0V13z"/>
</g>
</svg>
