<?xml version="1.0" encoding="UTF-8" standalone="no"?>
<svg width="12px" height="11px" viewBox="0 0 12 11" version="1.1" xmlns="http://www.w3.org/2000/svg" xmlns:xlink="http://www.w3.org/1999/xlink" xmlns:sketch="http://www.bohemiancoding.com/sketch/ns">
    <!-- Generator: Sketch 3.4.4 (17248) - http://www.bohemiancoding.com/sketch -->
    <title>jobgraph-input</title>
    <desc>Created with Sketch.</desc>
    <defs></defs>
    <g id="Jobs" stroke="none" stroke-width="1" fill="none" fill-rule="evenodd" sketch:type="MSPage">
        <g id="Artboard-22" sketch:type="MSArtboardGroup" transform="translate(-162.000000, -90.000000)">
            <g id="jobgraph-input" sketch:type="MSLayerGroup" transform="translate(162.000000, 90.000000)">
                <path d="M5.67739095,4.94570769 L4.10921217,3.29136189 L5.38518173,3.29136189 L7.4842126,5.4485903 L5.3957667,7.59522833 L4.11979714,7.59522833 L5.67739095,5.94056161 L1.63691283e-12,5.94056161 L1.63691283e-12,4.94570769 L5.67739095,4.94570769 Z" id="Shape" fill="#000000" sketch:type="MSShapeGroup"></path>
                <path d="M11.7611805,10.5547583 L1.7821234,10.5547583 L1.7821234,8.55802585 L3.20756551,8.55802585 L3.20756551,9.12826614 L10.3354176,9.12826614 L10.3354176,7.23868552 L11.7611805,7.23868552 L11.7611805,10.5547583 Z" id="Shape" fill="#000000" sketch:type="MSShapeGroup"></path>
                <path d="M11.7611805,7.33604482 L10.3354176,7.33604482 L10.3354176,1.42617124 L3.20756551,1.42617124 L3.20756551,2.35327525 L1.7821234,2.35327525 L1.7821234,0 L11.7611805,0 L11.7611805,7.33604482 Z" id="Shape" fill="#000000" sketch:type="MSShapeGroup"></path>
            </g>
        </g>
    </g>
</svg>